<svg width="123" height="66" viewBox="0 0 123 66" fill="none" xmlns="http://www.w3.org/2000/svg">
<path d="M30.8738 39.2647C31.1851 39.6176 31.3501 40.0949 31.3501 40.7125C31.3501 41.2219 31.2789 41.6911 31.1213 42.1083L24.4672 63.4492C24.3134 63.8984 24.0471 64.2714 23.6533 64.5842C23.2594 64.8891 22.8318 65.0455 22.348 65.0455C21.8378 65.0455 21.3802 64.8891 20.9789 64.5842C20.5775 64.2794 20.3112 63.8984 20.1912 63.4492L15.7876 45.9986L11.1515 63.4492C11.0052 63.8984 10.7201 64.2714 10.3188 64.5842C9.91742 64.8891 9.46731 65.0455 8.99469 65.0455C8.51083 65.0455 8.07197 64.8891 7.67062 64.5842C7.26927 64.2794 6.9842 63.8984 6.83792 63.4492L0.183794 42.1083C0.0637648 41.6871 0 41.2379 0 40.7607C0 39.4131 0.630154 38.7393 1.89046 38.7393C2.45685 38.7393 2.93322 38.9157 3.30831 39.2687C3.6834 39.6216 3.99472 40.1791 4.23103 40.9492L9.08471 57.1524L13.6721 40.5681C13.8184 40.0227 14.0847 39.5815 14.4598 39.2486C14.8349 38.9157 15.3187 38.7393 15.9226 38.7393C16.489 38.7393 16.9654 38.9037 17.3405 39.2486C17.7156 39.5895 17.9819 40.0307 18.1282 40.5681L22.1754 57.4813L27.1191 40.9492C27.5392 39.4732 28.3157 38.7393 29.4597 38.7393C30.0861 38.7353 30.5625 38.9117 30.8738 39.2647Z" fill="#F26B45"/>
<path d="M39.8834 63.5094C37.993 62.3743 36.5301 60.7941 35.4798 58.7687C34.4296 56.7433 33.9082 54.4612 33.9082 51.8984C33.9082 49.2994 34.4296 46.9933 35.4798 44.9799C36.5301 42.9585 37.993 41.3823 39.8834 40.2513C41.7739 39.1203 43.9119 38.5427 46.3087 38.5427C48.6756 38.5427 50.7948 39.1082 52.6703 40.2513C54.542 41.3863 56.0161 42.9665 57.0739 44.9799C58.1354 46.9933 58.6717 49.3075 58.6717 51.8984C58.6717 54.4572 58.1504 56.7553 57.1001 58.7687C56.0499 60.7901 54.587 62.3663 52.7153 63.5094C50.8436 64.6444 48.7018 65.2179 46.3087 65.2179C43.9231 65.2179 41.7739 64.6524 39.8834 63.5094ZM50.431 59.7353C51.6463 58.9652 52.5878 57.8984 53.2629 56.5388C53.9381 55.1791 54.2757 53.627 54.2757 51.8984C54.2757 50.1698 53.9381 48.6136 53.2629 47.2379C52.5878 45.8583 51.6463 44.7834 50.431 44.0133C49.2157 43.2433 47.8429 42.8623 46.32 42.8623C44.7971 42.8623 43.4243 43.2433 42.209 44.0133C40.9937 44.7834 40.0447 45.8583 39.3583 47.2379C38.6719 48.6176 38.3268 50.1698 38.3268 51.8984C38.3268 53.627 38.6756 55.1711 39.3583 56.5388C40.0447 57.8984 40.9937 58.9612 42.209 59.7353C43.4243 60.5094 44.7971 60.8864 46.32 60.8864C47.8429 60.8904 49.2157 60.5094 50.431 59.7353Z" fill="#F26B45"/>
<path d="M81.2934 39.2166C82.1899 39.7259 82.6475 40.3676 82.6475 41.1417C82.6475 41.3663 82.6288 41.5227 82.6025 41.619C82.3362 42.6457 81.7361 43.1551 80.8021 43.1551C80.6483 43.1551 80.427 43.127 80.1269 43.0588C78.9304 42.8342 77.9514 42.7259 77.2012 42.7259C75.0444 42.7259 73.3077 43.2553 71.9837 44.3102C70.6596 45.365 70.0107 46.7928 70.0107 48.5896V62.623C70.0107 63.3931 69.8194 63.9827 69.4443 64.3998C69.0692 64.8209 68.5103 65.0254 67.7639 65.0254C67.0437 65.0254 66.4923 64.8289 66.1022 64.4278C65.7084 64.0268 65.5171 63.4292 65.5171 62.6311V41.1417C65.5171 40.3717 65.7084 39.7821 66.1022 39.365C66.4961 38.9438 67.0437 38.7393 67.7639 38.7393C69.2643 38.7393 70.0107 39.5414 70.0107 41.1417V42.0521C70.9072 40.9291 72.0212 40.0508 73.3377 39.4051C74.6543 38.7594 76.0609 38.4465 77.5613 38.4465C79.1442 38.4425 80.3857 38.6952 81.2934 39.2166Z" fill="#F26B45"/>
<path d="M89.7181 63.8984C88.6866 63.1444 87.8801 62.0896 87.3137 60.7219C86.7473 59.3623 86.4623 57.8302 86.4623 56.1297V29.8836C86.4623 29.1817 86.6723 28.6042 87.0924 28.155C87.5125 27.7058 88.0527 27.4812 88.7091 27.4812C89.3655 27.4812 89.9056 27.7058 90.3257 28.155C90.7458 28.6042 90.9559 29.1817 90.9559 29.8836V56.1297C90.9559 57.3128 91.1659 58.2874 91.586 59.0615C92.0061 59.8316 92.5463 60.2126 93.2027 60.2126H94.3279C94.9318 60.2126 95.4157 60.4372 95.7908 60.8864C96.1659 61.3356 96.3572 61.9131 96.3572 62.615C96.3572 63.3169 96.0721 63.8944 95.5057 64.3436C94.9393 64.7928 94.2004 65.0174 93.3039 65.0174H93.2139C91.9123 65.0214 90.7496 64.6524 89.7181 63.8984Z" fill="#F26B45"/>
<path d="M122.37 28.1628C122.79 28.612 123 29.2096 123 29.9396V51.8581C123 54.3608 122.452 56.6268 121.365 58.6602C120.269 60.6937 118.788 62.2939 116.912 63.4691C115.037 64.6442 112.947 65.2298 110.644 65.2298C108.334 65.2298 106.23 64.6442 104.328 63.4691C102.426 62.2979 100.937 60.6937 99.8605 58.6602C98.784 56.6268 98.2439 54.3608 98.2439 51.8581C98.2439 49.3554 98.7465 47.0893 99.7518 45.0559C100.757 43.0225 102.137 41.4302 103.893 40.2792C105.648 39.1281 107.602 38.5505 109.759 38.5505C111.496 38.5505 113.113 38.9316 114.613 39.7016C116.113 40.4717 117.381 41.5465 118.431 42.9262V29.9476C118.431 29.2136 118.649 28.62 119.08 28.1708C119.512 27.7216 120.059 27.497 120.716 27.497C121.402 27.489 121.95 27.7136 122.37 28.1628ZM114.714 59.715C115.929 58.933 116.878 57.8501 117.565 56.4704C118.251 55.0907 118.596 53.5586 118.596 51.8581C118.596 50.1575 118.248 48.6335 117.565 47.2658C116.878 45.9062 115.918 44.8313 114.714 44.0412C113.499 43.2591 112.145 42.858 110.648 42.858C109.152 42.858 107.797 43.2471 106.582 44.0412C105.367 44.8233 104.407 45.8982 103.705 47.2658C103 48.6254 102.644 50.1575 102.644 51.8581C102.644 53.5586 102.993 55.0907 103.705 56.4704C104.41 57.8501 105.367 58.933 106.582 59.715C107.797 60.4971 109.152 60.8982 110.648 60.8982C112.137 60.8902 113.499 60.4971 114.714 59.715Z" fill="#F26B45"/>
<path d="M1.70256 31.1623C1.18118 30.7813 0.779834 30.2438 0.487263 29.558C0.194692 28.8722 0.0559082 28.1021 0.0559082 27.2438V13.9844C0.0559082 13.6315 0.164685 13.3387 0.374736 13.1141C0.584787 12.8895 0.858603 12.7732 1.18868 12.7732C1.51876 12.7732 1.79258 12.8895 2.00263 13.1141C2.21268 13.3387 2.32146 13.6315 2.32146 13.9844V27.2438C2.32146 27.8414 2.43023 28.3387 2.64029 28.7278C2.85034 29.1168 3.12415 29.3133 3.45423 29.3133H4.02062C4.32069 29.3133 4.56825 29.4297 4.75955 29.6543C4.95084 29.8789 5.04462 30.1716 5.04462 30.5246C5.04462 30.8775 4.89833 31.1703 4.61326 31.4029C4.32069 31.6275 3.95685 31.7438 3.49924 31.7438H3.45423C2.80532 31.7278 2.22018 31.5433 1.70256 31.1623Z" fill="#F26B45"/>
<path d="M7.65187 15.8101C7.3593 15.4972 7.21301 15.1162 7.21301 14.675C7.21301 14.2338 7.3593 13.8649 7.65187 13.54C7.94444 13.2272 8.30078 13.0707 8.71338 13.0707C9.12598 13.0707 9.47106 13.2272 9.77488 13.54C10.0675 13.8528 10.2212 14.2338 10.2212 14.675C10.2212 15.1162 10.075 15.4852 9.77488 15.8101C9.48231 16.1229 9.12598 16.2793 8.71338 16.2793C8.30078 16.2793 7.94444 16.1349 7.65187 15.8101ZM7.88067 31.3796C7.66312 31.147 7.55059 30.8502 7.55059 30.4892V19.6804C7.55059 19.3074 7.65937 19.0066 7.88067 18.782C8.10198 18.5574 8.37579 18.4411 8.71338 18.4411C9.06221 18.4411 9.34353 18.5574 9.55358 18.782C9.76363 19.0066 9.8724 19.3114 9.8724 19.6804V30.4892C9.8724 30.8422 9.76363 31.143 9.55358 31.3796C9.34353 31.6122 9.05846 31.7326 8.71338 31.7326C8.37204 31.7285 8.09823 31.6122 7.88067 31.3796Z" fill="#F26B45"/>
<path d="M24.1934 19.0146C24.3022 19.1791 24.3472 19.3756 24.3472 19.5802C24.3472 19.7285 24.3097 19.885 24.2384 20.0414L19.4223 30.8984C19.1935 31.4358 18.8484 31.7005 18.3795 31.7005C18.1245 31.7005 17.9144 31.6403 17.7381 31.516C17.5731 31.3997 17.4193 31.1831 17.2805 30.9024L12.4681 20.0414C12.4043 19.913 12.3781 19.7687 12.3781 19.6002C12.3781 19.159 12.5881 18.8302 13.0195 18.6015C13.1582 18.5253 13.312 18.4852 13.4958 18.4852C13.6796 18.4852 13.8522 18.5334 14.0172 18.6416C14.1822 18.7499 14.3098 18.8943 14.3998 19.0908L18.3495 28.1992L22.2505 19.0908C22.3405 18.8943 22.468 18.7499 22.6443 18.6416C22.8168 18.5334 23.0006 18.4852 23.2032 18.4852C23.4057 18.4852 23.5783 18.5253 23.7246 18.6015C23.9346 18.7138 24.0922 18.8502 24.1934 19.0146Z" fill="#F26B45"/>
<path d="M37.0214 25.6523C36.8189 25.8569 36.5751 25.9571 36.2713 25.9571H27.6441C27.8092 27.0922 28.2931 28.0106 29.0883 28.7045C29.8834 29.3983 30.8512 29.7513 32.0027 29.7513C32.4603 29.7513 32.9254 29.663 33.4206 29.4866C33.9157 29.3101 34.317 29.0855 34.6359 28.8328C34.8459 28.6564 35.0935 28.5681 35.386 28.5681C35.6711 28.5681 35.8962 28.6443 36.0725 28.8128C36.3463 29.0574 36.4851 29.3302 36.4851 29.643C36.4851 29.9358 36.365 30.1804 36.1212 30.377C35.6111 30.8181 34.9697 31.1671 34.2008 31.4438C33.4318 31.7205 32.7004 31.8529 32.0065 31.8529C30.7649 31.8529 29.6471 31.5681 28.6719 30.9946C27.6854 30.4171 26.9165 29.6269 26.3688 28.6002C25.8212 27.5855 25.5361 26.4224 25.5361 25.1309C25.5361 23.8315 25.8024 22.6764 26.3238 21.6416C26.8452 20.6149 27.5766 19.8127 28.5069 19.2392C29.4408 18.6617 30.4911 18.3809 31.6764 18.3809C32.8467 18.3809 33.8519 18.6536 34.6921 19.2111C35.5323 19.7686 36.1925 20.5307 36.6464 21.5173C37.104 22.5039 37.3328 23.639 37.3328 24.9184C37.3253 25.1911 37.224 25.4478 37.0214 25.6523ZM28.972 21.409C28.2856 22.0547 27.8467 22.9251 27.6667 24.0079H35.2323C35.0935 22.9251 34.7221 22.0547 34.0995 21.409C33.4768 20.7633 32.6629 20.4424 31.6689 20.4424C30.5624 20.4424 29.6659 20.7673 28.972 21.409Z" fill="#F26B45"/>
<path d="M52.9066 29.647C53.0979 29.8716 53.1917 30.1644 53.1917 30.5173C53.1917 30.8703 53.0642 31.1631 52.8166 31.3957C52.569 31.6283 52.2502 31.7366 51.8489 31.7366H51.4363C50.6973 31.7366 50.0184 31.5321 49.407 31.123C48.7956 30.7139 48.3118 30.1444 47.9629 29.4304C47.6141 28.7165 47.4415 27.9144 47.4415 27.028V21.028H46.3988C46.08 21.028 45.8249 20.9318 45.6299 20.7352C45.4273 20.5387 45.3373 20.2941 45.3373 20.0013C45.3373 19.6804 45.4386 19.4157 45.6299 19.2192C45.8211 19.0227 46.0875 18.9264 46.3988 18.9264H47.4415V15.4291C47.4415 15.0761 47.5503 14.7833 47.7604 14.5587C47.9704 14.3341 48.2442 14.2178 48.5743 14.2178C48.9044 14.2178 49.1782 14.3341 49.3883 14.5587C49.5983 14.7833 49.7071 15.0761 49.7071 15.4291V18.9264H51.6351C51.9539 18.9264 52.209 19.0227 52.404 19.2192C52.5953 19.4157 52.6966 19.6684 52.6966 20.0013C52.6966 20.2941 52.5953 20.5387 52.404 20.7352C52.2015 20.9318 51.9464 21.028 51.6351 21.028H49.7071V27.028C49.7071 27.6738 49.8721 28.2192 50.2097 28.6604C50.5398 29.1016 50.9487 29.3141 51.4325 29.3141H52.2015C52.4865 29.3061 52.7228 29.4144 52.9066 29.647Z" fill="#F26B45"/>
<path d="M65.0259 19.0547C65.8586 19.544 66.5075 20.2458 66.9801 21.1763C67.4452 22.1028 67.6853 23.2298 67.6853 24.5373V30.5092C67.6853 30.8622 67.5765 31.163 67.3552 31.3996C67.1376 31.6322 66.8601 31.7526 66.5225 31.7526C66.1849 31.7526 65.9111 31.6362 65.6898 31.3996C65.4722 31.167 65.3597 30.8702 65.3597 30.5092V24.5373C65.3597 23.2298 65.0296 22.2311 64.3732 21.5654C63.7168 20.8916 62.8391 20.5587 61.7513 20.5587C61.1099 20.5587 60.536 20.695 60.0147 20.9678C59.4933 21.2405 59.0807 21.6135 58.7919 22.0827C58.4993 22.552 58.3455 23.0814 58.3455 23.6549V30.5052C58.3455 30.8582 58.2367 31.159 58.0267 31.3956C57.8166 31.6282 57.5315 31.7486 57.1865 31.7486C56.8489 31.7486 56.5751 31.6322 56.3538 31.3956C56.1362 31.163 56.0237 30.8662 56.0237 30.5052V13.9932C56.0237 13.6202 56.1325 13.3194 56.3538 13.0948C56.5751 12.8702 56.8489 12.7538 57.1865 12.7538C57.5353 12.7538 57.8166 12.8702 58.0267 13.0948C58.2367 13.3194 58.3455 13.6242 58.3455 13.9932V19.945C58.8294 19.4277 59.407 19.0266 60.0709 18.7418C60.7348 18.4571 61.4513 18.3207 62.2089 18.3207C63.2517 18.3327 64.1932 18.5654 65.0259 19.0547Z" fill="#F26B45"/>
<path d="M82.3963 25.6523C82.1938 25.8569 81.9499 25.9571 81.6461 25.9571H73.019C73.1841 27.0922 73.6679 28.0106 74.4631 28.7045C75.2583 29.3983 76.2261 29.7513 77.3776 29.7513C77.8352 29.7513 78.3003 29.663 78.7954 29.4866C79.2905 29.3101 79.6919 29.0855 80.0107 28.8328C80.2208 28.6564 80.4683 28.5681 80.7609 28.5681C81.046 28.5681 81.271 28.6443 81.4473 28.8128C81.7211 29.0574 81.8599 29.3302 81.8599 29.643C81.8599 29.9358 81.7399 30.1804 81.4961 30.377C80.986 30.8181 80.3446 31.1671 79.5756 31.4438C78.8067 31.7205 78.0753 31.8529 77.3813 31.8529C76.1398 31.8529 75.022 31.5681 74.0468 30.9946C73.0603 30.4171 72.2913 29.6269 71.7437 28.6002C71.1961 27.5855 70.911 26.4224 70.911 25.1309C70.911 23.8315 71.1773 22.6764 71.6987 21.6416C72.2201 20.6149 72.9515 19.8127 73.8817 19.2392C74.8157 18.6617 75.866 18.3809 77.0513 18.3809C78.2215 18.3809 79.2268 18.6536 80.067 19.2111C80.9072 19.7686 81.5674 20.5307 82.0212 21.5173C82.4788 22.5039 82.7076 23.639 82.7076 24.9184C82.6889 25.1911 82.5989 25.4478 82.3963 25.6523ZM74.3468 21.409C73.6604 22.0547 73.2216 22.9251 73.0415 24.0079H80.6071C80.4683 22.9251 80.097 22.0547 79.4743 21.409C78.8517 20.7633 78.0377 20.4424 77.0438 20.4424C75.9372 20.4424 75.0333 20.7673 74.3468 21.409Z" fill="#F26B45"/>
<path d="M108.589 32.0815L101.507 24.1082L108.99 9.57743C109.2 9.1563 108.806 8.89159 108.544 9.24454L98.4352 21.8582L88.9679 17.5186C87.7451 16.9611 87.6888 15.1523 88.8141 14.4905L113.004 0.212429C114.129 -0.46137 115.509 0.56537 115.307 1.92099L111.26 31.147C111.076 32.5387 109.467 33.0762 108.589 32.0815Z" fill="#F26B45"/>
</svg>
